<mxfile host="app.diagrams.net" agent="Mozilla/5.0 (Windows NT 10.0; Win64; x64) AppleWebKit/537.36 (KHTML, like Gecko) Chrome/126.0.0.0 Safari/537.36" version="24.7.5">
  <diagram name="Page-1" id="u58D83wr4fnWmFaywL11">
    <mxGraphModel dx="1434" dy="738" grid="1" gridSize="10" guides="1" tooltips="1" connect="1" arrows="1" fold="1" page="1" pageScale="1" pageWidth="850" pageHeight="1100" math="0" shadow="0">
      <root>
        <mxCell id="0" />
        <mxCell id="1" parent="0" />
        <mxCell id="0csdlRQRCUjxYoqNWEJE-2" value="Retriever" style="swimlane;whiteSpace=wrap;html=1;" parent="1" vertex="1">
          <mxGeometry x="300" y="560" width="320" height="120" as="geometry" />
        </mxCell>
        <mxCell id="0csdlRQRCUjxYoqNWEJE-38" value="&lt;span style=&quot;font-size: 11px; text-wrap: nowrap; background-color: rgb(255, 255, 255);&quot;&gt;0) interactions and&amp;nbsp;&lt;/span&gt;&lt;div&gt;&lt;span style=&quot;font-size: 11px; text-wrap: nowrap; background-color: rgb(255, 255, 255);&quot;&gt;query come in&lt;/span&gt;&lt;/div&gt;" style="rounded=0;whiteSpace=wrap;html=1;" parent="0csdlRQRCUjxYoqNWEJE-2" vertex="1">
          <mxGeometry x="20" y="40" width="120" height="60" as="geometry" />
        </mxCell>
        <mxCell id="0csdlRQRCUjxYoqNWEJE-48" value="5) display" style="rounded=0;whiteSpace=wrap;html=1;" parent="0csdlRQRCUjxYoqNWEJE-2" vertex="1">
          <mxGeometry x="180" y="40" width="120" height="60" as="geometry" />
        </mxCell>
        <mxCell id="0csdlRQRCUjxYoqNWEJE-4" value="pgvector" style="swimlane;whiteSpace=wrap;html=1;" parent="1" vertex="1">
          <mxGeometry x="360" y="60" width="200" height="260" as="geometry" />
        </mxCell>
        <mxCell id="0csdlRQRCUjxYoqNWEJE-5" value="Embedding" style="swimlane;fontStyle=0;childLayout=stackLayout;horizontal=1;startSize=30;horizontalStack=0;resizeParent=1;resizeParentMax=0;resizeLast=0;collapsible=1;marginBottom=0;whiteSpace=wrap;html=1;" parent="0csdlRQRCUjxYoqNWEJE-4" vertex="1">
          <mxGeometry x="40" y="40" width="120" height="210" as="geometry" />
        </mxCell>
        <mxCell id="0csdlRQRCUjxYoqNWEJE-16" value="timestamp" style="text;strokeColor=none;fillColor=none;align=left;verticalAlign=middle;spacingLeft=4;spacingRight=4;overflow=hidden;points=[[0,0.5],[1,0.5]];portConstraint=eastwest;rotatable=0;whiteSpace=wrap;html=1;" parent="0csdlRQRCUjxYoqNWEJE-5" vertex="1">
          <mxGeometry y="30" width="120" height="30" as="geometry" />
        </mxCell>
        <mxCell id="0csdlRQRCUjxYoqNWEJE-6" value="content" style="text;strokeColor=none;fillColor=none;align=left;verticalAlign=middle;spacingLeft=4;spacingRight=4;overflow=hidden;points=[[0,0.5],[1,0.5]];portConstraint=eastwest;rotatable=0;whiteSpace=wrap;html=1;" parent="0csdlRQRCUjxYoqNWEJE-5" vertex="1">
          <mxGeometry y="60" width="120" height="30" as="geometry" />
        </mxCell>
        <mxCell id="0csdlRQRCUjxYoqNWEJE-14" value="&lt;span style=&quot;color: rgb(0, 0, 0); font-family: Helvetica; font-size: 12px; font-style: normal; font-variant-ligatures: normal; font-variant-caps: normal; font-weight: 400; letter-spacing: normal; orphans: 2; text-align: left; text-indent: 0px; text-transform: none; widows: 2; word-spacing: 0px; -webkit-text-stroke-width: 0px; white-space: normal; background-color: rgb(251, 251, 251); text-decoration-thickness: initial; text-decoration-style: initial; text-decoration-color: initial; display: inline !important; float: none;&quot;&gt;content_vector&lt;/span&gt;" style="text;strokeColor=none;fillColor=none;align=left;verticalAlign=middle;spacingLeft=4;spacingRight=4;overflow=hidden;points=[[0,0.5],[1,0.5]];portConstraint=eastwest;rotatable=0;whiteSpace=wrap;html=1;" parent="0csdlRQRCUjxYoqNWEJE-5" vertex="1">
          <mxGeometry y="90" width="120" height="30" as="geometry" />
        </mxCell>
        <mxCell id="0csdlRQRCUjxYoqNWEJE-15" value="token_count" style="text;strokeColor=none;fillColor=none;align=left;verticalAlign=middle;spacingLeft=4;spacingRight=4;overflow=hidden;points=[[0,0.5],[1,0.5]];portConstraint=eastwest;rotatable=0;whiteSpace=wrap;html=1;" parent="0csdlRQRCUjxYoqNWEJE-5" vertex="1">
          <mxGeometry y="120" width="120" height="30" as="geometry" />
        </mxCell>
        <mxCell id="0csdlRQRCUjxYoqNWEJE-40" value="conversation" style="text;strokeColor=none;fillColor=none;align=left;verticalAlign=middle;spacingLeft=4;spacingRight=4;overflow=hidden;points=[[0,0.5],[1,0.5]];portConstraint=eastwest;rotatable=0;whiteSpace=wrap;html=1;" parent="0csdlRQRCUjxYoqNWEJE-5" vertex="1">
          <mxGeometry y="150" width="120" height="30" as="geometry" />
        </mxCell>
        <mxCell id="0csdlRQRCUjxYoqNWEJE-53" value="result: bool" style="text;strokeColor=none;fillColor=none;align=left;verticalAlign=middle;spacingLeft=4;spacingRight=4;overflow=hidden;points=[[0,0.5],[1,0.5]];portConstraint=eastwest;rotatable=0;whiteSpace=wrap;html=1;" parent="0csdlRQRCUjxYoqNWEJE-5" vertex="1">
          <mxGeometry y="180" width="120" height="30" as="geometry" />
        </mxCell>
        <mxCell id="0csdlRQRCUjxYoqNWEJE-10" value="query by order" style="rounded=0;whiteSpace=wrap;html=1;" parent="1" vertex="1">
          <mxGeometry x="240" y="420" width="120" height="60" as="geometry" />
        </mxCell>
        <mxCell id="0csdlRQRCUjxYoqNWEJE-11" value="query by vector similarity" style="rounded=0;whiteSpace=wrap;html=1;" parent="1" vertex="1">
          <mxGeometry x="560" y="420" width="120" height="60" as="geometry" />
        </mxCell>
        <mxCell id="0csdlRQRCUjxYoqNWEJE-19" value="query by n-1 + summary vector similarity" style="rounded=0;whiteSpace=wrap;html=1;" parent="1" vertex="1">
          <mxGeometry x="400" y="420" width="120" height="60" as="geometry" />
        </mxCell>
        <mxCell id="0csdlRQRCUjxYoqNWEJE-21" value="" style="endArrow=classic;html=1;rounded=0;exitX=0.5;exitY=0;exitDx=0;exitDy=0;entryX=0.5;entryY=1;entryDx=0;entryDy=0;" parent="1" source="0csdlRQRCUjxYoqNWEJE-2" target="0csdlRQRCUjxYoqNWEJE-19" edge="1">
          <mxGeometry width="50" height="50" relative="1" as="geometry">
            <mxPoint x="350" y="570" as="sourcePoint" />
            <mxPoint x="460" y="500" as="targetPoint" />
          </mxGeometry>
        </mxCell>
        <mxCell id="0csdlRQRCUjxYoqNWEJE-22" value="3) search conversation history" style="edgeLabel;html=1;align=center;verticalAlign=middle;resizable=0;points=[];" parent="0csdlRQRCUjxYoqNWEJE-21" vertex="1" connectable="0">
          <mxGeometry x="0.2222" y="-1" relative="1" as="geometry">
            <mxPoint as="offset" />
          </mxGeometry>
        </mxCell>
        <mxCell id="0csdlRQRCUjxYoqNWEJE-23" value="" style="endArrow=classic;html=1;rounded=0;" parent="1" target="0csdlRQRCUjxYoqNWEJE-38" edge="1">
          <mxGeometry width="50" height="50" relative="1" as="geometry">
            <mxPoint x="240" y="630" as="sourcePoint" />
            <mxPoint x="280" y="630" as="targetPoint" />
          </mxGeometry>
        </mxCell>
        <mxCell id="0csdlRQRCUjxYoqNWEJE-26" value="" style="endArrow=classic;html=1;rounded=0;entryX=0;entryY=0.5;entryDx=0;entryDy=0;" parent="1" target="0csdlRQRCUjxYoqNWEJE-33" edge="1">
          <mxGeometry width="50" height="50" relative="1" as="geometry">
            <mxPoint x="620" y="620" as="sourcePoint" />
            <mxPoint x="680" y="630" as="targetPoint" />
          </mxGeometry>
        </mxCell>
        <mxCell id="0csdlRQRCUjxYoqNWEJE-29" value="" style="endArrow=classic;html=1;rounded=0;exitX=1;exitY=0;exitDx=0;exitDy=0;entryX=1;entryY=1;entryDx=0;entryDy=0;" parent="1" source="0csdlRQRCUjxYoqNWEJE-2" target="0csdlRQRCUjxYoqNWEJE-4" edge="1">
          <mxGeometry width="50" height="50" relative="1" as="geometry">
            <mxPoint x="370" y="570" as="sourcePoint" />
            <mxPoint x="590" y="470" as="targetPoint" />
            <Array as="points">
              <mxPoint x="800" y="440" />
            </Array>
          </mxGeometry>
        </mxCell>
        <mxCell id="0csdlRQRCUjxYoqNWEJE-30" value="6) store result" style="edgeLabel;html=1;align=center;verticalAlign=middle;resizable=0;points=[];" parent="0csdlRQRCUjxYoqNWEJE-29" vertex="1" connectable="0">
          <mxGeometry x="0.1667" y="-2" relative="1" as="geometry">
            <mxPoint as="offset" />
          </mxGeometry>
        </mxCell>
        <mxCell id="0csdlRQRCUjxYoqNWEJE-32" value="LLM" style="swimlane;whiteSpace=wrap;html=1;" parent="1" vertex="1">
          <mxGeometry x="680" y="560" width="200" height="120" as="geometry" />
        </mxCell>
        <mxCell id="0csdlRQRCUjxYoqNWEJE-33" value="&lt;span style=&quot;font-size: 11px; text-wrap: nowrap; background-color: rgb(255, 255, 255);&quot;&gt;4) ask LLM to rephrase query&lt;/span&gt;" style="rounded=0;whiteSpace=wrap;html=1;" parent="0csdlRQRCUjxYoqNWEJE-32" vertex="1">
          <mxGeometry x="20" y="40" width="160" height="60" as="geometry" />
        </mxCell>
        <mxCell id="0csdlRQRCUjxYoqNWEJE-37" value="embedding model" style="swimlane;whiteSpace=wrap;html=1;" parent="1" vertex="1">
          <mxGeometry x="300" y="720" width="160" height="120" as="geometry" />
        </mxCell>
        <mxCell id="0csdlRQRCUjxYoqNWEJE-28" value="1) embed interactions and query" style="rounded=0;whiteSpace=wrap;html=1;" parent="0csdlRQRCUjxYoqNWEJE-37" vertex="1">
          <mxGeometry x="20" y="40" width="120" height="60" as="geometry" />
        </mxCell>
        <mxCell id="0csdlRQRCUjxYoqNWEJE-39" value="" style="endArrow=classic;html=1;rounded=0;exitX=0.5;exitY=1;exitDx=0;exitDy=0;entryX=0.5;entryY=0;entryDx=0;entryDy=0;" parent="1" source="0csdlRQRCUjxYoqNWEJE-38" target="0csdlRQRCUjxYoqNWEJE-28" edge="1">
          <mxGeometry width="50" height="50" relative="1" as="geometry">
            <mxPoint x="270" y="660" as="sourcePoint" />
            <mxPoint x="320" y="610" as="targetPoint" />
          </mxGeometry>
        </mxCell>
        <mxCell id="0csdlRQRCUjxYoqNWEJE-41" value="" style="endArrow=classic;html=1;rounded=0;exitX=0.5;exitY=0;exitDx=0;exitDy=0;entryX=0.5;entryY=1;entryDx=0;entryDy=0;" parent="1" source="0csdlRQRCUjxYoqNWEJE-2" target="0csdlRQRCUjxYoqNWEJE-10" edge="1">
          <mxGeometry width="50" height="50" relative="1" as="geometry">
            <mxPoint x="620" y="410" as="sourcePoint" />
            <mxPoint x="670" y="360" as="targetPoint" />
          </mxGeometry>
        </mxCell>
        <mxCell id="0csdlRQRCUjxYoqNWEJE-42" value="" style="endArrow=classic;html=1;rounded=0;entryX=0.5;entryY=1;entryDx=0;entryDy=0;" parent="1" target="0csdlRQRCUjxYoqNWEJE-11" edge="1">
          <mxGeometry width="50" height="50" relative="1" as="geometry">
            <mxPoint x="460" y="560" as="sourcePoint" />
            <mxPoint x="670" y="360" as="targetPoint" />
          </mxGeometry>
        </mxCell>
        <mxCell id="0csdlRQRCUjxYoqNWEJE-43" value="" style="endArrow=classic;html=1;rounded=0;exitX=0.5;exitY=0;exitDx=0;exitDy=0;entryX=0.5;entryY=1;entryDx=0;entryDy=0;" parent="1" source="0csdlRQRCUjxYoqNWEJE-10" target="0csdlRQRCUjxYoqNWEJE-4" edge="1">
          <mxGeometry width="50" height="50" relative="1" as="geometry">
            <mxPoint x="620" y="410" as="sourcePoint" />
            <mxPoint x="670" y="360" as="targetPoint" />
          </mxGeometry>
        </mxCell>
        <mxCell id="0csdlRQRCUjxYoqNWEJE-44" value="" style="endArrow=classic;html=1;rounded=0;exitX=0.5;exitY=0;exitDx=0;exitDy=0;entryX=0.5;entryY=1;entryDx=0;entryDy=0;" parent="1" source="0csdlRQRCUjxYoqNWEJE-19" target="0csdlRQRCUjxYoqNWEJE-4" edge="1">
          <mxGeometry width="50" height="50" relative="1" as="geometry">
            <mxPoint x="620" y="410" as="sourcePoint" />
            <mxPoint x="670" y="360" as="targetPoint" />
          </mxGeometry>
        </mxCell>
        <mxCell id="0csdlRQRCUjxYoqNWEJE-45" value="" style="endArrow=classic;html=1;rounded=0;exitX=0.5;exitY=0;exitDx=0;exitDy=0;entryX=0.5;entryY=1;entryDx=0;entryDy=0;" parent="1" source="0csdlRQRCUjxYoqNWEJE-11" target="0csdlRQRCUjxYoqNWEJE-4" edge="1">
          <mxGeometry width="50" height="50" relative="1" as="geometry">
            <mxPoint x="620" y="410" as="sourcePoint" />
            <mxPoint x="670" y="360" as="targetPoint" />
          </mxGeometry>
        </mxCell>
        <mxCell id="0csdlRQRCUjxYoqNWEJE-46" value="" style="endArrow=classic;html=1;rounded=0;entryX=0;entryY=0.25;entryDx=0;entryDy=0;" parent="1" target="0csdlRQRCUjxYoqNWEJE-33" edge="1">
          <mxGeometry width="50" height="50" relative="1" as="geometry">
            <mxPoint x="620" y="610" as="sourcePoint" />
            <mxPoint x="690" y="470" as="targetPoint" />
          </mxGeometry>
        </mxCell>
        <mxCell id="0csdlRQRCUjxYoqNWEJE-47" value="" style="endArrow=classic;html=1;rounded=0;entryX=0;entryY=0.75;entryDx=0;entryDy=0;" parent="1" target="0csdlRQRCUjxYoqNWEJE-33" edge="1">
          <mxGeometry width="50" height="50" relative="1" as="geometry">
            <mxPoint x="620" y="630" as="sourcePoint" />
            <mxPoint x="690" y="470" as="targetPoint" />
          </mxGeometry>
        </mxCell>
        <mxCell id="0csdlRQRCUjxYoqNWEJE-51" value="" style="endArrow=classic;html=1;rounded=0;exitX=0;exitY=0;exitDx=0;exitDy=0;entryX=0;entryY=1;entryDx=0;entryDy=0;" parent="1" source="0csdlRQRCUjxYoqNWEJE-2" target="0csdlRQRCUjxYoqNWEJE-4" edge="1">
          <mxGeometry width="50" height="50" relative="1" as="geometry">
            <mxPoint x="460" y="480" as="sourcePoint" />
            <mxPoint x="510" y="430" as="targetPoint" />
            <Array as="points">
              <mxPoint x="130" y="440" />
            </Array>
          </mxGeometry>
        </mxCell>
        <mxCell id="0csdlRQRCUjxYoqNWEJE-52" value="2) store interactions" style="edgeLabel;html=1;align=center;verticalAlign=middle;resizable=0;points=[];" parent="0csdlRQRCUjxYoqNWEJE-51" vertex="1" connectable="0">
          <mxGeometry x="0.3495" relative="1" as="geometry">
            <mxPoint y="-1" as="offset" />
          </mxGeometry>
        </mxCell>
      </root>
    </mxGraphModel>
  </diagram>
</mxfile>
